<svg width="726" height="625" viewBox="0 0 726 625" fill="none" xmlns="http://www.w3.org/2000/svg">
<path d="M185.265 82.7281C177.801 82.7281 171.728 88.8007 171.728 96.2651C171.728 103.729 177.801 109.802 185.265 109.802C192.729 109.802 198.802 103.729 198.802 96.2651C198.802 88.8007 192.729 82.7281 185.265 82.7281ZM185.265 111.53C176.848 111.53 170 104.682 170 96.2651C170 87.848 176.848 81 185.265 81C193.682 81 200.53 87.848 200.53 96.2651C200.53 104.682 193.682 111.53 185.265 111.53Z" fill="#B8B8B8"/>
<path d="M248.265 595.728C240.801 595.728 234.728 601.801 234.728 609.265C234.728 616.729 240.801 622.802 248.265 622.802C255.729 622.802 261.802 616.729 261.802 609.265C261.802 601.801 255.729 595.728 248.265 595.728ZM248.265 624.53C239.848 624.53 233 617.682 233 609.265C233 600.848 239.848 594 248.265 594C256.682 594 263.53 600.848 263.53 609.265C263.53 617.682 256.682 624.53 248.265 624.53Z" fill="#B8B8B8"/>
<path d="M134.264 511H135.992V539.323H134.264V511Z" fill="#B8B8B8"/>
<path d="M125.742 514.525L145.769 534.552L144.547 535.774L124.52 515.746L125.742 514.525Z" fill="#B8B8B8"/>
<path d="M121 524.292H149.323V526.02H121V524.292Z" fill="#B8B8B8"/>
<path d="M144.547 514.525L145.769 515.747L125.742 535.774L124.52 534.552L144.547 514.525Z" fill="#B8B8B8"/>
<path d="M549.827 363H551.555V391.323H549.827V363Z" fill="#B8B8B8"/>
<path d="M538.864 369.32L563.392 383.481L562.528 384.978L538 370.817L538.864 369.32Z" fill="#B8B8B8"/>
<path d="M562.529 369.321L563.392 370.817L538.864 384.979L538.001 383.483L562.529 369.321Z" fill="#B8B8B8"/>
<path d="M264 211.301H305.283V213.029H264V211.301Z" fill="#B8B8B8"/>
<path d="M287.821 200L289.043 201.222L265.932 224.334L264.71 223.112L287.821 200Z" fill="#B8B8B8"/>
<path d="M300.345 200L301.567 201.222L278.455 224.334L277.233 223.112L300.345 200Z" fill="#B8B8B8"/>
<path d="M277.535 462L278.757 463.222L243.222 498.757L242 497.535L277.535 462Z" fill="#B8B8B8"/>
<path d="M252.271 479.502H268.535V481.231H252.271V479.502Z" fill="#B8B8B8"/>
<path d="M259.535 472.231H261.264V488.495H259.535V472.231Z" fill="#B8B8B8"/>
<path d="M546.171 10.2531L552.348 16.43L558.525 10.2531L552.348 4.0762L546.171 10.2531ZM552.348 18.5158C552.127 18.5158 551.906 18.4317 551.737 18.2629L544.338 10.8643C544.001 10.5267 544.001 9.97946 544.338 9.6419L551.737 2.24323C552.061 1.91892 552.635 1.91892 552.959 2.24323L560.358 9.6419C560.695 9.97946 560.695 10.5267 560.358 10.8643L552.959 18.2629C552.79 18.4317 552.569 18.5158 552.348 18.5158Z" fill="#B8B8B8"/>
<path d="M515 9.39307H589.693V11.1212H515V9.39307Z" fill="#B8B8B8"/>
<path d="M580.734 2.12158H582.462V18.3855H580.734V2.12158Z" fill="#B8B8B8"/>
<path d="M522.239 2.12158H523.967V18.3855H522.239V2.12158Z" fill="#B8B8B8"/>
<path d="M4.63163 468.112L9.65817 473.139L14.6841 468.112L9.65817 463.086L4.63163 468.112ZM9.65817 475.224C9.4289 475.224 9.20886 475.133 9.04699 474.972L2.79867 468.723C2.46111 468.386 2.46111 467.838 2.79867 467.501L9.04699 461.253C9.38455 460.916 9.93121 460.916 10.2688 461.253L16.5171 467.501C16.6795 467.663 16.7705 467.883 16.7705 468.112C16.7705 468.341 16.6795 468.561 16.5171 468.723L10.2688 474.972C10.1069 475.133 9.88743 475.224 9.65817 475.224Z" fill="#B8B8B8"/>
<path d="M4.63163 530.304L9.65817 535.331L14.6841 530.304L9.65817 525.277L4.63163 530.304ZM9.65817 537.416C9.43697 537.416 9.21577 537.332 9.04699 537.163L2.79867 530.915C2.46111 530.578 2.46111 530.03 2.79867 529.693L9.04699 523.445C9.38455 523.108 9.93121 523.108 10.2688 523.445L16.5171 529.693C16.6795 529.855 16.7705 530.075 16.7705 530.304C16.7705 530.533 16.6795 530.753 16.5171 530.915L10.2688 537.163C10.1 537.332 9.87879 537.416 9.65817 537.416Z" fill="#B8B8B8"/>
<path d="M8.81573 473.503H10.5438V524.927H8.81573V473.503Z" fill="#B8B8B8"/>
<path d="M9.64871 491.289C5.28117 491.289 1.72815 494.842 1.72815 499.21C1.72815 503.578 5.28117 507.131 9.64871 507.131C14.0168 507.131 17.5699 503.578 17.5699 499.21C17.5699 494.842 14.0168 491.289 9.64871 491.289ZM9.64871 508.859C4.3284 508.859 2.67029e-05 504.531 2.67029e-05 499.21C2.67029e-05 493.89 4.3284 489.561 9.64871 489.561C14.969 489.561 19.298 493.89 19.298 499.21C19.298 504.531 14.969 508.859 9.64871 508.859Z" fill="#B8B8B8"/>
<path d="M640.945 544.304L640 542.857L640.724 542.385C660.762 529.299 666.42 502.351 653.335 482.312L652.862 481.588L654.309 480.644L654.782 481.367C668.388 502.204 662.505 530.226 641.668 543.832L640.945 544.304Z" fill="#B8B8B8"/>
<path d="M650.174 469.724C648.985 469.724 647.82 470.069 646.8 470.734C645.415 471.638 644.465 473.028 644.125 474.647C643.785 476.266 644.096 477.921 645.001 479.306C646.868 482.166 650.713 482.973 653.573 481.106C654.958 480.201 655.909 478.811 656.249 477.192C656.589 475.573 656.277 473.919 655.373 472.533C654.469 471.148 653.079 470.198 651.459 469.858C651.031 469.768 650.601 469.724 650.174 469.724ZM650.199 483.839C647.61 483.839 645.072 482.576 643.554 480.251C642.397 478.479 641.999 476.363 642.433 474.293C642.868 472.221 644.084 470.444 645.855 469.287C649.512 466.898 654.431 467.931 656.82 471.589C659.208 475.246 658.176 480.165 654.518 482.553C653.185 483.423 651.684 483.839 650.199 483.839Z" fill="#B8B8B8"/>
<path d="M708.739 357.484C705.831 357.484 703.465 359.85 703.465 362.759C703.465 365.667 705.831 368.034 708.739 368.034C711.648 368.034 714.014 365.667 714.014 362.759C714.014 359.85 711.648 357.484 708.739 357.484ZM708.739 369.762C704.878 369.762 701.736 366.62 701.736 362.759C701.736 358.898 704.878 355.756 708.739 355.756C712.601 355.756 715.742 358.898 715.742 362.759C715.742 366.62 712.601 369.762 708.739 369.762Z" fill="#B8B8B8"/>
<path d="M694.086 362.756L708.756 377.426L723.426 362.756L708.756 348.086L694.086 362.756ZM708.756 379.512C708.535 379.512 708.314 379.427 708.145 379.259L692.253 363.367C692.091 363.205 692 362.985 692 362.756C692 362.527 692.091 362.307 692.253 362.145L708.145 346.253C708.483 345.916 709.029 345.916 709.367 346.253L725.259 362.145C725.421 362.307 725.512 362.527 725.512 362.756C725.512 362.985 725.421 363.205 725.259 363.367L709.367 379.259C709.198 379.427 708.977 379.512 708.756 379.512Z" fill="#B8B8B8"/>
<path d="M657.572 155H659.3V170.907H657.572V155Z" fill="#B8B8B8"/>
<path d="M636 162.09H680.832V163.818H636V162.09Z" fill="#B8B8B8"/>
<path d="M278.841 56.87C279.856 53.082 283.764 50.8258 287.552 51.8408L288.386 52.0645L287.939 53.7337L287.104 53.5101C284.237 52.7416 281.278 54.4495 280.51 57.3173C279.742 60.1851 281.45 63.1432 284.317 63.9116L285.152 64.1353L284.705 65.8045L283.87 65.5809C280.082 64.5659 277.826 60.6581 278.841 56.87Z" fill="#B8B8B8"/>
<path d="M389.086 11.047L398.048 20.0085L407.008 11.047L398.048 2.08556L389.086 11.047ZM398.048 22.0943C397.826 22.0943 397.605 22.0097 397.436 21.8409L387.253 11.6582C386.916 11.3206 386.916 10.7734 387.253 10.4358L397.436 0.25317C397.774 -0.08439 398.321 -0.08439 398.658 0.25317L408.841 10.4358C409.179 10.7734 409.179 11.3206 408.841 11.6582L398.658 21.8409C398.489 22.0097 398.268 22.0943 398.048 22.0943Z" fill="#B8B8B8"/>
<path d="M89.0861 609.047L98.0476 618.008L107.008 609.047L98.0476 600.086L89.0861 609.047ZM98.0476 620.094C97.8264 620.094 97.6052 620.01 97.4364 619.841L87.2532 609.658C86.9156 609.321 86.9156 608.773 87.2532 608.436L97.4364 598.253C97.774 597.916 98.3206 597.916 98.6582 598.253L108.841 608.436C109.179 608.773 109.179 609.321 108.841 609.658L98.6582 619.841C98.4894 620.01 98.2682 620.094 98.0476 620.094Z" fill="#B8B8B8"/>
<path d="M38.8324 92.4039C35.4666 92.4039 32.7281 95.1418 32.7281 98.5082C32.7281 101.874 35.4666 104.612 38.8324 104.612C42.1982 104.612 44.9367 101.874 44.9367 98.5082C44.9367 95.1418 42.1982 92.4039 38.8324 92.4039ZM38.8324 106.34C34.5138 106.34 31 102.827 31 98.5082C31 94.1896 34.5138 90.6758 38.8324 90.6758C43.151 90.6758 46.6648 94.1896 46.6648 98.5082C46.6648 102.827 43.151 106.34 38.8324 106.34Z" fill="#B8B8B8"/>
<path d="M37.9575 83H39.6856V99.3722H37.9575V83Z" fill="#B8B8B8"/>
<path d="M380.744 343.489C376.474 343.489 373 340.015 373 335.745C373 331.475 376.474 328 380.744 328H381.608V329.728H380.744C377.427 329.728 374.728 332.427 374.728 335.745C374.728 339.062 377.427 341.761 380.744 341.761C384.062 341.761 386.76 339.062 386.76 335.745V334.881H388.489V335.745C388.489 340.015 385.014 343.489 380.744 343.489Z" fill="#B8B8B8"/>
<path d="M691.832 43.7281C688.467 43.7281 685.728 46.466 685.728 49.8324C685.728 53.1982 688.467 55.9362 691.832 55.9362C695.198 55.9362 697.937 53.1982 697.937 49.8324C697.937 46.466 695.198 43.7281 691.832 43.7281ZM691.832 57.6643C687.514 57.6643 684 54.151 684 49.8324C684 45.5139 687.514 42 691.832 42C696.151 42 699.665 45.5139 699.665 49.8324C699.665 54.151 696.151 57.6643 691.832 57.6643Z" fill="#B8B8B8"/>
<path d="M118 28.9921L118 9L119.728 9L119.728 28.9921L118 28.9921Z" fill="#B8B8B8"/>
</svg>
